<?xml version="1.0" encoding="UTF-8" standalone="no"?>
<!-- Created with Inkscape (http://www.inkscape.org/) -->

<svg
   xmlns:dc="http://purl.org/dc/elements/1.1/"
   xmlns:cc="http://creativecommons.org/ns#"
   xmlns:rdf="http://www.w3.org/1999/02/22-rdf-syntax-ns#"
   xmlns:svg="http://www.w3.org/2000/svg"
   xmlns="http://www.w3.org/2000/svg"
   xmlns:sodipodi="http://sodipodi.sourceforge.net/DTD/sodipodi-0.dtd"
   xmlns:inkscape="http://www.inkscape.org/namespaces/inkscape"
   width="139"
   height="21"
   viewBox="0 0 139 21"
   id="svg4199"
   version="1.1"
   inkscape:version="0.91 r13725"
   inkscape:export-filename="/home/aditya/PJT/ProjectPhase-I/major-1.0/public/assets/img/logo-dark.png"
   inkscape:export-xdpi="150"
   inkscape:export-ydpi="150"
   sodipodi:docname="baAs-logo.svg">
  <defs
     id="defs4201" />
  <sodipodi:namedview
     id="base"
     pagecolor="#ffffff"
     bordercolor="#666666"
     borderopacity="1.0"
     inkscape:pageopacity="0.0"
     inkscape:pageshadow="2"
     inkscape:zoom="7.2407734"
     inkscape:cx="90.291131"
     inkscape:cy="4.6979773"
     inkscape:document-units="px"
     inkscape:current-layer="layer1"
     showgrid="false"
     units="px"
     inkscape:window-width="1920"
     inkscape:window-height="956"
     inkscape:window-x="0"
     inkscape:window-y="26"
     inkscape:window-maximized="1" />
  <metadata
     id="metadata4204">
    <rdf:RDF>
      <cc:Work
         rdf:about="">
        <dc:format>image/svg+xml</dc:format>
        <dc:type
           rdf:resource="http://purl.org/dc/dcmitype/StillImage" />
        <dc:title></dc:title>
      </cc:Work>
    </rdf:RDF>
  </metadata>
  <g
     inkscape:label="Layer 1"
     inkscape:groupmode="layer"
     id="layer1"
     transform="translate(0,-1031.3622)">
    <path
       inkscape:connector-curvature="0"
       style="fill:#73c9c9"
       d="m 72.043559,1038.0292 5.580787,3.9627 c 0.350755,0.2493 0.966696,0.2493 1.317768,0 l 5.580742,-3.9627 c 0.122616,-0.087 0.192314,-0.1851 0.186918,-0.2631 -0.0055,-0.078 -0.08829,-0.1654 -0.221381,-0.2341 l -5.426927,-2.8042 c -0.207279,-0.1071 -0.492644,-0.1606 -0.778236,-0.1606 -0.285365,0 -0.570957,0.053 -0.77819,0.1606 l -5.426927,2.8041 c -0.132593,0.069 -0.215032,0.1563 -0.220565,0.2345 -0.0055,0.078 0.06398,0.1763 0.186011,0.2628 z"
       id="path3" />
    <g
       transform="matrix(0.03418283,0,0,0.03418283,69.532844,1033.8606)"
       id="g5">
      <path
         inkscape:connector-curvature="0"
         style="fill:#314e55"
         d="m 61.485,138.799 163.262,115.924 c 8.762,6.22 19.997,9.327 31.241,9.327 11.239,0 22.479,-3.113 31.241,-9.327 L 450.486,138.799 c 9.65,-6.845 14.796,-16.324 14.12,-25.995 C 463.925,103.134 457.508,94.477 447,89.049 L 288.238,7.014 c -18.075,-9.353 -46.415,-9.353 -64.5,0 L 64.976,89.049 c -10.493,5.423 -16.899,14.084 -17.58,23.765 -0.682,9.671 4.459,19.144 14.089,25.985 z M 74.46,107.401 233.222,25.366 c 6.064,-3.133 14.417,-4.697 22.766,-4.697 8.354,0 16.703,1.564 22.766,4.697 l 158.763,82.035 c 3.894,2.013 6.316,4.575 6.477,6.85 0.156,2.28 -1.882,5.156 -5.468,7.698 L 275.263,237.874 c -10.271,7.294 -28.29,7.294 -38.551,0 L 73.45,121.95 c -3.572,-2.532 -5.604,-5.408 -5.443,-7.688 0.162,-2.29 2.573,-4.853 6.453,-6.861 z"
         id="path7" />
      <path
         inkscape:connector-curvature="0"
         style="fill:#314e55"
         d="m 447,171.699 -9.484,18.352 c 3.894,2.013 6.316,4.575 6.477,6.85 0.156,2.28 -1.882,5.156 -5.468,7.698 L 275.263,320.524 c -10.271,7.294 -28.29,7.294 -38.551,0 L 73.45,204.6 c -3.572,-2.532 -5.604,-5.408 -5.443,-7.688 0.161,-2.29 2.573,-4.853 6.452,-6.86 L 64.975,171.7 c -10.493,5.423 -16.899,14.084 -17.58,23.765 -0.681,9.67 4.459,19.144 14.09,25.984 l 163.262,115.924 c 8.762,6.22 19.997,9.327 31.241,9.327 11.239,0 22.479,-3.113 31.241,-9.327 L 450.486,221.449 c 9.65,-6.845 14.796,-16.324 14.12,-25.995 -0.681,-9.67 -7.098,-18.327 -17.606,-23.755 z"
         id="path9" />
      <path
         inkscape:connector-curvature="0"
         style="fill:#314e55"
         d="m 447,254.349 -9.484,18.352 c 3.894,2.013 6.316,4.575 6.477,6.85 0.156,2.28 -1.882,5.156 -5.468,7.698 L 275.263,403.174 c -10.271,7.294 -28.29,7.294 -38.551,0 L 73.45,287.25 c -3.572,-2.532 -5.604,-5.408 -5.443,-7.688 0.161,-2.29 2.573,-4.853 6.452,-6.86 L 64.975,254.35 c -10.493,5.423 -16.899,14.084 -17.58,23.765 -0.681,9.67 4.459,19.144 14.09,25.984 l 163.262,115.924 c 8.762,6.22 19.997,9.327 31.241,9.327 11.239,0 22.478,-3.113 31.241,-9.327 L 450.486,304.099 c 9.65,-6.845 14.796,-16.324 14.12,-25.995 -0.681,-9.67 -7.098,-18.327 -17.606,-23.755 z"
         id="path11" />
      <path
         inkscape:connector-curvature="0"
         style="fill:#314e55"
         d="m 447,336.999 -9.484,18.352 c 3.894,2.013 6.316,4.575 6.477,6.85 0.156,2.28 -1.882,5.156 -5.468,7.698 L 275.263,485.824 c -10.271,7.294 -28.29,7.294 -38.551,0 L 73.45,369.9 c -3.572,-2.532 -5.604,-5.408 -5.443,-7.688 0.161,-2.29 2.573,-4.853 6.452,-6.86 L 64.975,337 c -10.493,5.423 -16.899,14.084 -17.58,23.765 -0.681,9.67 4.459,19.144 14.09,25.984 l 163.262,115.924 c 8.762,6.22 19.997,9.327 31.241,9.327 11.239,0 22.478,-3.113 31.241,-9.327 L 450.486,386.749 c 9.65,-6.846 14.796,-16.324 14.12,-25.995 -0.681,-9.67 -7.098,-18.327 -17.606,-23.755 z"
         id="path13" />
    </g>
    <text
       xml:space="preserve"
       style="font-style:normal;font-weight:normal;font-size:5.53752851px;line-height:125%;font-family:sans-serif;letter-spacing:0px;word-spacing:0px;fill:#314e55;fill-opacity:1;stroke:none;stroke-width:1px;stroke-linecap:butt;stroke-linejoin:miter;stroke-opacity:1"
       x="58.608337"
       y="1048.748"
       id="text4195"
       sodipodi:linespacing="125%"><tspan
         sodipodi:role="line"
         id="tspan4197"
         x="58.608337"
         y="1048.748"
         style="font-style:normal;font-variant:normal;font-weight:normal;font-stretch:normal;font-size:19.93510246px;font-family:raleway;-inkscape-font-specification:raleway;fill:#314e55;fill-opacity:1">b   aAs</tspan></text>
    <path
       inkscape:connector-curvature="0"
       style="fill:#73c9c9"
       d="m 41.36875,1038.5744 c 0,-2.0487 -1.67839,-3.7154 -3.74153,-3.7154 -0.726087,0 -1.430044,0.2067 -2.036095,0.5976 l -0.331326,0.2138 -0.15827,-0.361 c -0.55193,-1.2581 -1.80124,-2.0708 -3.18273,-2.0708 -1.71578,0 -3.19242,1.2696 -3.43467,2.9533 l -0.042,0.2917 -0.32903,-0.01 c -1.61344,0 -2.92607,1.3033 -2.92607,2.905 0,1.602 1.31263,2.9053 2.92607,2.9053 l 9.578228,0 c 2.025418,-0.032 3.677393,-1.6982 3.677393,-3.7155 z"
       id="path3-3" />
    <path
       inkscape:connector-curvature="0"
       style="fill:#314e55"
       d="m 57.212102,1045.684 c -0.13123,-0.1313 -0.343777,-0.1313 -0.475007,0 -0.131192,0.1312 -0.131229,0.3437 0,0.4749 l 0.851739,0.8518 -20.951306,0 0,-4.0494 1.058891,0 c 2.395463,-0.036 4.344146,-2.0045 4.344146,-4.3868 0,-2.4191 -1.979865,-4.3873 -4.413345,-4.3873 -0.729375,0 -1.440388,0.1774 -2.077105,0.5154 -0.722646,-1.3088 -2.109906,-2.1358 -3.631316,-2.1358 -1.95146,0 -3.64396,1.378 -4.04925,3.2492 -1.87062,0.125 -3.35431,1.6778 -3.35431,3.5688 0,1.9725 1.61392,3.5771 3.59789,3.5771 l 2.08283,0 0,4.0489 -4.95134,0 0.85174,-0.8517 c 0.13123,-0.1312 0.13123,-0.3438 0,-0.475 -0.13123,-0.1312 -0.34378,-0.1313 -0.47497,0 l -1.66265,1.6625 1.66261,1.6626 c 0.0656,0.065 0.15155,0.098 0.23748,0.098 0.0859,0 0.17191,-0.033 0.23749,-0.098 0.13123,-0.1313 0.13123,-0.3438 0,-0.475 l -0.85174,-0.8518 5.62312,0 0,-4.7209 2.04511,0 0,7.0146 -0.85174,-0.8517 c -0.13123,-0.1312 -0.34377,-0.1312 -0.47497,0 -0.13119,0.1312 -0.13123,0.3438 0,0.475 l 1.66262,1.6626 1.66265,-1.6626 c 0.13123,-0.1312 0.13123,-0.3438 0,-0.475 -0.13123,-0.1312 -0.34378,-0.1312 -0.47497,0 l -0.85174,0.8517 0,-7.0146 2.381018,0 0,4.7211 21.623157,0 -0.851739,0.8518 c -0.131229,0.1312 -0.131229,0.3438 0,0.475 0.06562,0.065 0.151551,0.098 0.237485,0.098 0.08593,0 0.171906,-0.033 0.237485,-0.098 l 1.662688,-1.6627 -1.662651,-1.6626 z m -32.025043,-6.2993 c 0,-1.6018 1.31263,-2.9051 2.92607,-2.9051 l 0.32903,0.01 0.042,-0.2918 c 0.24225,-1.6836 1.71889,-2.9533 3.43467,-2.9533 1.38149,0 2.6308,0.8129 3.18273,2.0709 l 0.15827,0.361 0.331326,-0.2138 c 0.606051,-0.391 1.310008,-0.5977 2.036095,-0.5977 2.063176,0 3.74153,1.6668 3.74153,3.7155 0,2.0172 -1.651975,3.684 -3.677429,3.7154 l -9.578232,0 c -1.6134,0 -2.92603,-1.3032 -2.92603,-2.9051 z"
       id="path5"
       sodipodi:nodetypes="cccccccsscscssccccscccsccccccccccccsccccccccsccccccccscccsscscc" />
    <g
       transform="matrix(0.03694536,0,0,0.03694536,13.958739,1032.4563)"
       id="g7" />
    <g
       transform="matrix(0.03694536,0,0,0.03694536,13.958739,1032.4563)"
       id="g9" />
    <g
       transform="matrix(0.03694536,0,0,0.03694536,13.958739,1032.4563)"
       id="g11" />
    <g
       transform="matrix(0.03694536,0,0,0.03694536,13.958739,1032.4563)"
       id="g13" />
    <g
       transform="matrix(0.03694536,0,0,0.03694536,13.958739,1032.4563)"
       id="g15" />
    <g
       transform="matrix(0.03694536,0,0,0.03694536,13.958739,1032.4563)"
       id="g17" />
    <g
       transform="matrix(0.03694536,0,0,0.03694536,13.958739,1032.4563)"
       id="g19" />
    <g
       transform="matrix(0.03694536,0,0,0.03694536,13.958739,1032.4563)"
       id="g21" />
    <g
       transform="matrix(0.03694536,0,0,0.03694536,13.958739,1032.4563)"
       id="g23" />
    <g
       transform="matrix(0.03694536,0,0,0.03694536,13.958739,1032.4563)"
       id="g25" />
    <g
       transform="matrix(0.03694536,0,0,0.03694536,13.958739,1032.4563)"
       id="g27" />
    <g
       transform="matrix(0.03694536,0,0,0.03694536,13.958739,1032.4563)"
       id="g29" />
    <g
       transform="matrix(0.03694536,0,0,0.03694536,13.958739,1032.4563)"
       id="g31" />
    <g
       transform="matrix(0.03694536,0,0,0.03694536,13.958739,1032.4563)"
       id="g33" />
    <g
       transform="matrix(0.03694536,0,0,0.03694536,13.958739,1032.4563)"
       id="g35" />
  </g>
</svg>
